<svg width="48" height="48" viewBox="0 0 48 48" fill="none" xmlns="http://www.w3.org/2000/svg">
<path d="M40.5 12.5H7.5C6.39543 12.5 5.5 13.3954 5.5 14.5V33.5C5.5 34.6046 6.39543 35.5 7.5 35.5H40.5C41.6046 35.5 42.5 34.6046 42.5 33.5V14.5C42.5 13.3954 41.6046 12.5 40.5 12.5Z" stroke="black" stroke-width="2" stroke-linecap="round" stroke-linejoin="round"/>
<path d="M35.5 40.5V7.5C35.5 6.39543 34.6046 5.5 33.5 5.5L14.5 5.5C13.3954 5.5 12.5 6.39543 12.5 7.5L12.5 40.5C12.5 41.6046 13.3954 42.5 14.5 42.5H33.5C34.6046 42.5 35.5 41.6046 35.5 40.5Z" stroke="black" stroke-width="2" stroke-linecap="round" stroke-linejoin="round"/>
<path d="M30.13 21.97L25.19 28.52M30.13 28.52L25.19 21.97M31.45 19H23.34L19.46 29L16.55 21.97" stroke="black" stroke-width="2" stroke-linecap="round" stroke-linejoin="round"/>
</svg>
